<svg height="494" width="720" xmlns="http://www.w3.org/2000/svg">
<rect height="494" fill="#555" width="720"></rect>
<text fill="#7f7" font-family="Courier New" font-size="12" xml:space="preserve">
<tspan x="10" y="26">3 megabytes installed</tspan>
<tspan x="10" y="42"></tspan>
<tspan x="10" y="58">node_modules</tspan>
<tspan x="10" y="74">└─┬ mysql2@1.2.0 </tspan>
<tspan x="10" y="90">  ├─┬ cardinal@1.0.0 </tspan>
<tspan x="10" y="106">  │ ├── ansicolors@0.2.1 </tspan>
<tspan x="10" y="122">  │ └─┬ redeyed@1.0.1 </tspan>
<tspan x="10" y="138">  │   └── esprima@3.0.0 </tspan>
<tspan x="10" y="154">  ├── denque@1.1.1 </tspan>
<tspan x="10" y="170">  ├── generate-function@2.0.0 </tspan>
<tspan x="10" y="186">  ├── iconv-lite@0.4.15 </tspan>
<tspan x="10" y="202">  ├── long@3.2.0 </tspan>
<tspan x="10" y="218">  ├─┬ lru-cache@4.0.2 </tspan>
<tspan x="10" y="234">  │ ├── pseudomap@1.0.2 </tspan>
<tspan x="10" y="250">  │ └── yallist@2.1.2 </tspan>
<tspan x="10" y="266">  ├─┬ named-placeholders@1.1.1 </tspan>
<tspan x="10" y="282">  │ └── lru-cache@2.5.0 </tspan>
<tspan x="10" y="298">  ├── object-assign@4.1.1 </tspan>
<tspan x="10" y="314">  ├─┬ readable-stream@2.2.2 </tspan>
<tspan x="10" y="330">  │ ├── buffer-shims@1.0.0 </tspan>
<tspan x="10" y="346">  │ ├── core-util-is@1.0.2 </tspan>
<tspan x="10" y="362">  │ ├── inherits@2.0.3 </tspan>
<tspan x="10" y="378">  │ ├── isarray@1.0.0 </tspan>
<tspan x="10" y="394">  │ ├── process-nextick-args@1.0.7 </tspan>
<tspan x="10" y="410">  │ ├── string_decoder@0.10.31 </tspan>
<tspan x="10" y="426">  │ └── util-deprecate@1.0.2 </tspan>
<tspan x="10" y="442">  ├── safe-buffer@5.0.1 </tspan>
<tspan x="10" y="458">  ├── seq-queue@0.0.5 </tspan>
<tspan x="10" y="474">  └── sqlstring@2.2.0</tspan>
</text>
</svg>
